HIERARCHY
ROOT joint_Root
{
	OFFSET 0.0 0.0 0.0
	CHANNELS 6 Xposition Yposition Zposition Zrotation Xrotation Yrotation 
	JOINT Hips
	{
		OFFSET 4.5925 91.4895 -427.239
		CHANNELS 6 Xposition Yposition Zposition Zrotation Xrotation Yrotation 
		JOINT Spine
		{
			OFFSET 15.7357 0.0 0.0
			CHANNELS 6 Xposition Yposition Zposition Zrotation Xrotation Yrotation 
			JOINT Chest
			{
				OFFSET 8.98455 -0.406207 0.0
				CHANNELS 6 Xposition Yposition Zposition Zrotation Xrotation Yrotation 
				JOINT Neck
				{
					OFFSET 16.3773 0.0 0.0
					CHANNELS 6 Xposition Yposition Zposition Zrotation Xrotation Yrotation 
					JOINT Head
					{
						OFFSET 6.45672 0.0 0.0
						CHANNELS 6 Xposition Yposition Zposition Zrotation Xrotation Yrotation 
						End Site
						{
							OFFSET 0.0 0.0 0.0
						}
					}
				}
				JOINT Shoulder_L
				{
					OFFSET 12.9942 -0.242716 4.98039
					CHANNELS 6 Xposition Yposition Zposition Zrotation Xrotation Yrotation 
					JOINT UpperArm_L
					{
						OFFSET 5.34809 0.0 0.0
						CHANNELS 6 Xposition Yposition Zposition Zrotation Xrotation Yrotation 
						JOINT LowerArm_L
						{
							OFFSET 24.3286 1.87007e-05 0.0
							CHANNELS 6 Xposition Yposition Zposition Zrotation Xrotation Yrotation 
							JOINT Hand_L
							{
								OFFSET 22.2916 0.0 0.0
								CHANNELS 6 Xposition Yposition Zposition Zrotation Xrotation Yrotation 
								End Site
								{
									OFFSET 0.0 0.0 0.0
								}
							}
						}
					}
				}
				JOINT Shoulder_R
				{
					OFFSET 12.9945 -0.242716 -4.98039
					CHANNELS 6 Xposition Yposition Zposition Zrotation Xrotation Yrotation 
					JOINT UpperArm_R
					{
						OFFSET -5.34813 0.0 0.0
						CHANNELS 6 Xposition Yposition Zposition Zrotation Xrotation Yrotation 
						JOINT LowerArm_R
						{
							OFFSET -24.3289 0.000322201 0.0
							CHANNELS 6 Xposition Yposition Zposition Zrotation Xrotation Yrotation 
							JOINT Hand_R
							{
								OFFSET -22.2915 -0.000108084 0.0
								CHANNELS 6 Xposition Yposition Zposition Zrotation Xrotation Yrotation 
								End Site
								{
									OFFSET 0.0 0.0 0.0
								}
							}
						}
					}
				}
			}
		}
		JOINT UpperLeg_L
		{
			OFFSET -2.19248 -6.46944 0.0
			CHANNELS 6 Xposition Yposition Zposition Zrotation Xrotation Yrotation 
			JOINT LowerLeg_L
			{
				OFFSET 39.0811 0.0 -1.23785e-05
				CHANNELS 6 Xposition Yposition Zposition Zrotation Xrotation Yrotation 
				JOINT Foot_L
				{
					OFFSET 40.9854 0.0 -1.26872e-05
					CHANNELS 6 Xposition Yposition Zposition Zrotation Xrotation Yrotation 
					JOINT Toes_L
					{
						OFFSET 11.7543 0.0 0.0
						CHANNELS 6 Xposition Yposition Zposition Zrotation Xrotation Yrotation 
						End Site
						{
							OFFSET 0.0 0.0 0.0
						}
					}
				}
			}
		}
		JOINT UpperLeg_R
		{
			OFFSET -2.19251 6.46944 0.0
			CHANNELS 6 Xposition Yposition Zposition Zrotation Xrotation Yrotation 
			JOINT LowerLeg_R
			{
				OFFSET -39.0811 -0.00228153 -0.0401928
				CHANNELS 6 Xposition Yposition Zposition Zrotation Xrotation Yrotation 
				JOINT Foot_R
				{
					OFFSET -40.9854 0.0 0.0
					CHANNELS 6 Xposition Yposition Zposition Zrotation Xrotation Yrotation 
					JOINT Toes_R
					{
						OFFSET -11.7543 0.0 0.0
						CHANNELS 6 Xposition Yposition Zposition Zrotation Xrotation Yrotation 
						End Site
						{
							OFFSET 0.0 0.0 0.0
						}
					}
				}
			}
		}
	}
}
MOTION
Frames:	8
Frame Time:	0.0333333
0.000000 0.000000 0.000000 0.000000 0.000000 -0.000000 -5.469550 91.518500 -1.067200 88.659400 13.925300 2.690510 15.735700 0.000005 -0.000001 92.297700 86.269500 -95.190700 8.984550 -0.406207 -0.000000 -0.291788 0.502307 -5.781410 16.377300 -0.000001 -0.000001 3.117070 -7.544650 6.091970 6.456720 -0.000001 -0.000000 -1.254160 -5.229440 0.759940 12.994200 -0.242716 4.980390 -91.701200 4.612810 -69.730600 5.348090 -0.000007 -0.000001 -65.866700 24.588200 -7.616250 24.328600 0.000019 0.000005 6.713400 16.371700 -22.665800 22.291600 -0.000001 0.000005 14.655600 5.180690 3.198830 12.994500 -0.242716 -4.980390 93.591600 -9.197840 -68.561000 -5.348130 -0.000001 -0.000004 -36.383000 -63.009100 -75.809000 -24.328900 0.000322 -0.000009 -0.332514 -0.251000 -52.688500 -22.291500 -0.000108 -0.000004 19.814800 5.545730 -8.506610 -2.192480 -6.469440 -0.000000 -172.455000 -3.844390 -9.767430 39.081100 -0.000007 -0.000012 -0.154425 0.306159 26.766400 40.985400 -0.000006 -0.000013 -1.862650 13.298200 -65.168500 11.754300 -0.000000 0.000003 -0.000117 -0.001178 -16.622600 -2.192510 6.469440 -0.000001 -178.854000 30.796000 175.467000 -39.081100 -0.002282 -0.040193 -0.047783 0.108666 25.183100 -40.985400 0.000008 0.000006 6.438110 5.676400 -69.437500 -11.754300 -0.000006 -0.000006 -0.002645 -0.036522 -18.058300
0.000000 0.000000 0.000000 0.000000 0.000000 -0.000000 -5.124880 91.544000 -1.089690 88.700300 12.543100 2.695900 15.735700 0.000005 -0.000001 92.031900 86.241100 -94.729500 8.984550 -0.406207 -0.000000 -0.236593 0.454720 -5.391120 16.377300 -0.000001 -0.000001 3.093640 -7.029940 5.792590 6.456720 -0.000001 -0.000000 -1.160760 -4.590280 0.276140 12.994200 -0.242716 4.980390 -91.709200 4.643260 -69.765300 5.348090 -0.000007 -0.000001 -65.703700 25.535600 -7.659790 24.328600 0.000019 0.000005 6.415920 16.805300 -21.252900 22.291600 -0.000001 0.000005 14.588900 5.173890 3.365760 12.994500 -0.242716 -4.980390 93.193100 -8.472230 -69.260600 -5.348130 -0.000001 -0.000004 -36.174300 -60.900100 -71.908600 -24.328900 0.000322 -0.000009 -3.036500 -1.755260 -59.962500 -22.291500 -0.000108 -0.000004 20.233800 5.539590 -8.224100 -2.192480 -6.469440 -0.000000 -172.732000 -4.218530 -9.427870 39.081100 -0.000007 -0.000012 -0.156614 0.310519 26.764900 40.985400 -0.000006 -0.000013 -1.805490 12.270000 -65.374900 11.754300 -0.000000 0.000003 -0.000131 -0.001291 -16.626800 -2.192510 6.469440 -0.000001 -179.207000 30.046400 175.477000 -39.081100 -0.002282 -0.040193 -0.058672 0.131650 25.212100 -40.985400 0.000008 0.000006 6.108660 6.429300 -69.292900 -11.754300 -0.000006 -0.000006 -0.002389 -0.033490 -17.935000
0.000000 0.000000 0.000000 0.000000 0.000000 -0.000000 -4.751100 91.544200 -1.097210 88.719200 10.895900 2.794640 15.735700 0.000005 -0.000001 92.078800 86.178800 -94.566800 8.984550 -0.406207 -0.000000 -0.113983 0.448122 -4.972540 16.377300 -0.000001 -0.000001 3.032740 -6.249880 5.181800 6.456720 -0.000001 -0.000000 -1.028310 -3.873010 -0.165281 12.994200 -0.242716 4.980390 -91.741000 4.708720 -69.681600 5.348090 -0.000007 -0.000001 -65.505100 26.419100 -7.735530 24.328600 0.000019 0.000005 6.268880 17.540000 -20.027000 22.291600 -0.000001 0.000005 14.381700 5.168160 3.505360 12.994500 -0.242716 -4.980390 92.612200 -7.360550 -70.399200 -5.348130 -0.000001 -0.000004 -35.417700 -58.033800 -66.740600 -24.328900 0.000322 -0.000009 -4.867630 -1.923030 -68.479700 -22.291500 -0.000108 -0.000004 20.849900 5.542040 -8.335650 -2.192480 -6.469440 -0.000000 -172.989000 -4.617490 -9.020680 39.081100 -0.000007 -0.000012 -0.164007 0.323130 26.910600 40.985400 -0.000006 -0.000013 -1.776830 11.026300 -65.695600 11.754300 -0.000000 0.000003 -0.000129 -0.001282 -16.626500 -2.192510 6.469440 -0.000001 -179.632000 29.185900 175.532000 -39.081100 -0.002282 -0.040193 -0.075299 0.165843 25.361100 -40.985400 0.000008 0.000006 5.659630 7.348220 -69.182900 -11.754300 -0.000006 -0.000006 -0.002534 -0.035210 -18.004900
0.000000 0.000000 0.000000 0.000000 0.000000 -0.000000 -4.366740 91.543000 -1.110920 88.738600 9.051550 2.992890 15.735700 0.000005 -0.000001 92.537900 86.094900 -94.818600 8.984550 -0.406207 -0.000000 0.050556 0.499212 -4.558540 16.377300 -0.000001 -0.000001 2.973020 -5.337650 4.502250 6.456720 -0.000001 -0.000000 -0.867925 -3.141590 -0.648164 12.994200 -0.242716 4.980390 -91.809300 4.861680 -69.558200 5.348090 -0.000007 -0.000001 -65.285300 27.033400 -7.637920 24.328600 0.000019 0.000005 6.251520 18.323600 -19.210400 22.291600 -0.000001 0.000005 14.012600 5.156120 3.796680 12.994500 -0.242716 -4.980390 91.870100 -5.747790 -71.944800 -5.348130 -0.000001 -0.000004 -33.614000 -54.287600 -60.058500 -24.328900 0.000322 -0.000009 -5.390210 -1.206660 -77.411000 -22.291500 -0.000108 -0.000004 21.617600 5.540260 -8.255300 -2.192480 -6.469440 -0.000000 -173.219000 -5.336220 -8.463640 39.081100 -0.000007 -0.000012 -0.169417 0.332010 27.034400 40.985400 -0.000006 -0.000013 -1.708230 9.973760 -66.029100 11.754300 -0.000000 0.000003 -0.000141 -0.001380 -16.630100 -2.192510 6.469440 -0.000001 179.868000 28.386200 175.658000 -39.081100 -0.002282 -0.040193 -0.092220 0.199988 25.533100 -40.985400 0.000008 0.000006 5.339180 8.535240 -69.079400 -11.754300 -0.000006 -0.000006 -0.002417 -0.033822 -17.948500
0.000000 0.000000 0.000000 0.000000 0.000000 -0.000000 -3.983580 91.529000 -1.105020 88.777800 7.194480 3.275910 15.735700 0.000005 -0.000001 93.137800 85.955000 -95.227500 8.984550 -0.406207 -0.000000 0.325910 0.578297 -4.178320 16.377300 -0.000001 -0.000001 2.699870 -4.353570 3.694140 6.456720 -0.000001 -0.000000 -0.674198 -2.517450 -0.807842 12.994200 -0.242716 4.980390 -91.899800 5.061700 -69.395900 5.348090 -0.000007 -0.000001 -65.060200 27.391300 -7.561510 24.328600 0.000019 0.000005 6.169730 18.715600 -18.618300 22.291600 -0.000001 0.000005 13.917500 5.150840 3.923260 12.994500 -0.242716 -4.980390 91.055400 -3.577690 -73.556600 -5.348130 -0.000001 -0.000004 -31.264400 -49.412100 -52.566500 -24.328900 0.000322 -0.000009 -5.834190 -0.434509 -85.748800 -22.291500 -0.000108 -0.000004 22.249700 5.541010 -8.288250 -2.192480 -6.469440 -0.000000 -173.441000 -6.280010 -7.853680 39.081100 -0.000007 -0.000012 -0.172994 0.336569 27.203100 40.985400 -0.000006 -0.000013 -1.608360 9.073580 -66.369800 11.754300 -0.000000 0.000003 -0.000153 -0.001480 -16.633800 -2.192510 6.469440 -0.000001 179.286000 27.744100 175.860000 -39.081100 -0.002282 -0.040193 -0.111475 0.238029 25.744900 -40.985400 0.000008 0.000006 4.929560 9.872320 -68.978300 -11.754300 -0.000006 -0.000006 -0.002364 -0.033180 -17.922300
0.000000 0.000000 0.000000 0.000000 0.000000 -0.000000 -3.628990 91.515200 -1.098900 88.799200 5.419170 3.473550 15.735700 0.000005 -0.000001 93.363200 85.834800 -95.227200 8.984550 -0.406207 -0.000000 0.562634 0.605657 -3.728260 16.377300 -0.000001 -0.000001 2.389200 -3.326900 2.857380 6.456720 -0.000001 -0.000000 -0.624666 -1.870300 -1.016930 12.994200 -0.242716 4.980390 -92.003500 5.303550 -69.270500 5.348090 -0.000007 -0.000001 -64.984900 27.431400 -7.426020 24.328600 0.000019 0.000005 6.068830 18.866000 -18.200600 22.291600 -0.000001 0.000005 13.846300 5.149120 3.964290 12.994500 -0.242716 -4.980390 90.303900 -1.135820 -75.034100 -5.348130 -0.000001 -0.000004 -29.117700 -42.948100 -45.121700 -24.328900 0.000322 -0.000009 -6.209780 0.260394 -92.388000 -22.291500 -0.000108 -0.000004 22.772500 5.544770 -8.461640 -2.192480 -6.469440 -0.000000 -173.613000 -7.412570 -7.336120 39.081100 -0.000007 -0.000012 -0.173351 0.335129 27.351200 40.985400 -0.000006 -0.000013 -1.471240 8.437150 -66.692800 11.754300 -0.000000 0.000003 -0.000160 -0.001535 -16.635800 -2.192510 6.469440 -0.000001 178.811000 27.044300 175.938000 -39.081100 -0.002282 -0.040193 -0.130651 0.275505 25.931000 -40.985400 0.000008 0.000006 4.568760 11.112000 -68.852900 -11.754300 -0.000006 -0.000006 -0.002256 -0.031876 -17.869300
0.000000 0.000000 0.000000 0.000000 0.000000 -0.000000 -3.300160 91.505300 -1.095130 88.829200 3.920680 3.627960 15.735700 0.000005 -0.000001 92.876400 85.724300 -94.503400 8.984550 -0.406207 -0.000000 0.784204 0.528048 -3.255080 16.377300 -0.000001 -0.000001 2.050730 -2.438090 2.072920 6.456720 -0.000001 -0.000000 -0.708974 -1.152430 -1.258230 12.994200 -0.242716 4.980390 -92.077300 5.478910 -69.198900 5.348090 -0.000007 -0.000001 -64.966500 27.568100 -7.337610 24.328600 0.000019 0.000005 5.964940 18.882900 -17.892500 22.291600 -0.000001 0.000005 13.690500 5.155370 3.814370 12.994500 -0.242716 -4.980390 89.658900 1.390360 -76.204800 -5.348130 -0.000001 -0.000004 -27.608700 -34.852400 -38.239400 -24.328900 0.000322 -0.000009 -6.340770 0.704436 -96.312000 -22.291500 -0.000108 -0.000004 22.476400 5.548370 -8.629380 -2.192480 -6.469440 -0.000000 -173.796000 -8.293320 -6.927050 39.081100 -0.000007 -0.000012 -0.173332 0.333545 27.459600 40.985400 -0.000006 -0.000013 -1.366360 7.799680 -66.945500 11.754300 -0.000000 0.000003 -0.000175 -0.001654 -16.640200 -2.192510 6.469440 -0.000001 178.383000 26.523300 175.994000 -39.081100 -0.002282 -0.040193 -0.148969 0.311504 26.051800 -40.985400 0.000008 0.000006 4.151700 12.218800 -68.685100 -11.754300 -0.000006 -0.000006 -0.002182 -0.030976 -17.832700
0.000000 0.000000 0.000000 0.000000 0.000000 -0.000000 -3.012580 91.499900 -1.071330 88.850700 2.718220 3.688540 15.735700 0.000005 -0.000001 91.327100 85.666400 -92.695800 8.984550 -0.406207 -0.000000 0.903755 0.282590 -2.737410 16.377300 -0.000001 -0.000001 1.828960 -1.539480 1.344170 6.456720 -0.000001 -0.000000 -0.851052 -0.456703 -1.589350 12.994200 -0.242716 4.980390 -92.139200 5.639880 -69.189200 5.348090 -0.000007 -0.000001 -65.017000 27.734200 -7.158550 24.328600 0.000019 0.000005 5.929130 18.843400 -17.824800 22.291600 -0.000001 0.000005 13.531200 5.161570 3.665170 12.994500 -0.242716 -4.980390 89.146700 3.681120 -76.938200 -5.348130 -0.000001 -0.000004 -27.795100 -25.331900 -32.685900 -24.328900 0.000322 -0.000009 -5.828680 0.679336 -96.622200 -22.291500 -0.000108 -0.000004 21.435300 5.546550 -8.543150 -2.192480 -6.469440 -0.000000 -173.938000 -9.102070 -6.635910 39.081100 -0.000007 -0.000012 -0.175299 0.336509 27.516800 40.985400 -0.000006 -0.000013 -1.247040 7.418350 -67.150100 11.754300 -0.000000 0.000003 -0.000175 -0.001651 -16.640100 -2.192510 6.469440 -0.000001 178.125000 25.916300 175.941000 -39.081100 -0.002282 -0.040193 -0.156357 0.325111 26.156500 -40.985400 0.000008 0.000006 3.961230 12.865600 -68.583500 -11.754300 -0.000006 -0.000006 -0.002093 -0.029870 -17.787700
